<?xml version="1.0" standalone="no"?>
<!DOCTYPE svg PUBLIC "-//W3C//DTD SVG 20010904//EN"
 "http://www.w3.org/TR/2001/REC-SVG-20010904/DTD/svg10.dtd">
<svg version="1.0" xmlns="http://www.w3.org/2000/svg"
 width="2000.000000pt" height="439.000000pt" viewBox="0 0 2000.000000 439.000000"
 preserveAspectRatio="xMidYMid meet">

<g transform="translate(0.000000,439.000000) scale(0.100000,-0.100000)"
fill="#000000" stroke="none">
<path d="M4209 4375 c-91 -7 -176 -18 -187 -24 -26 -14 -52 -61 -52 -93 0 -13
11 -40 25 -60 14 -20 25 -41 25 -46 0 -6 -892 -637 -1981 -1403 -1090 -767
-1988 -1404 -1996 -1416 -59 -90 16 -211 124 -200 32 3 67 22 155 84 62 44
934 658 1938 1363 1004 706 1845 1298 1870 1316 l45 33 40 -45 c48 -54 93 -66
140 -36 25 15 46 55 118 219 48 110 87 214 87 229 0 32 -24 66 -57 83 -26 13
-72 12 -294 -4z"/>
<path d="M19710 4291 c-79 -16 -146 -76 -169 -150 -8 -27 -11 -252 -11 -776
l0 -737 -38 49 c-166 208 -419 359 -706 420 -120 26 -379 24 -506 -4 -389 -85
-702 -338 -895 -723 -142 -284 -197 -655 -150 -1017 85 -646 517 -1135 1093
-1239 188 -33 432 -16 595 43 217 78 437 236 563 407 l44 58 0 -137 c0 -167
10 -205 70 -266 62 -65 134 -83 225 -58 56 15 128 92 143 152 9 34 12 530 12
1920 0 2082 5 1925 -67 1999 -50 51 -129 74 -203 59z m-852 -1620 c509 -149
797 -726 671 -1346 -79 -391 -346 -697 -685 -786 -113 -29 -284 -36 -403 -15
-183 32 -319 105 -462 246 -210 208 -313 453 -326 776 -24 576 277 1031 755
1140 91 21 358 12 450 -15z"/>
<path d="M6745 3109 c-216 -29 -459 -133 -629 -269 -150 -119 -297 -303 -391
-490 -189 -376 -217 -939 -66 -1348 143 -392 469 -702 871 -830 316 -101 702
-100 971 1 99 37 236 109 334 175 109 73 259 211 285 263 48 93 9 213 -82 258
-90 43 -176 20 -281 -78 -166 -152 -321 -232 -521 -266 -281 -48 -566 9 -787
157 -246 165 -420 464 -445 769 l-7 79 1040 0 1041 0 53 28 c60 31 106 87 119
145 10 45 -4 225 -25 327 -53 255 -176 495 -349 677 -187 198 -439 336 -709
388 -100 20 -327 27 -422 14z m373 -434 c177 -43 329 -128 452 -254 123 -125
193 -273 207 -437 l6 -74 -882 0 c-745 0 -881 2 -881 14 0 32 54 197 90 273
48 103 88 161 164 241 131 137 267 207 480 248 87 17 275 11 364 -11z"/>
<path d="M10010 3113 c-19 -2 -78 -10 -130 -19 -574 -98 -1027 -568 -1131
-1174 -94 -548 56 -1084 400 -1429 206 -206 447 -329 741 -377 113 -19 376
-21 500 -4 344 46 692 218 774 382 70 140 -19 298 -169 298 -59 0 -104 -21
-179 -84 -175 -145 -388 -206 -676 -193 -267 12 -477 103 -657 283 -274 274
-381 720 -272 1139 76 294 293 558 560 679 126 58 224 78 393 84 313 9 491
-39 634 -172 62 -57 103 -77 171 -83 117 -10 201 79 201 211 -1 81 -26 134
-98 205 -132 128 -391 221 -701 251 -97 9 -282 11 -361 3z"/>
<path d="M12840 3106 c-548 -80 -983 -448 -1160 -985 -87 -262 -103 -583 -44
-869 104 -503 472 -925 942 -1082 296 -98 656 -98 952 0 380 126 709 443 864
835 79 202 113 421 103 679 -16 415 -156 746 -431 1022 -208 207 -427 325
-716 384 -135 28 -375 35 -510 16z m418 -422 c399 -82 700 -411 777 -848 19
-113 20 -337 0 -449 -43 -245 -138 -432 -304 -597 -197 -197 -442 -290 -726
-277 -150 7 -249 32 -380 96 -279 138 -473 390 -546 710 -41 177 -36 442 11
625 99 389 415 684 800 749 68 11 296 6 368 -9z"/>
<path d="M16418 3110 c-108 -17 -183 -41 -283 -90 -210 -104 -375 -273 -494
-505 l-41 -79 0 210 c0 247 -7 281 -74 342 -92 85 -239 75 -324 -22 -17 -20
-36 -52 -41 -73 -17 -59 -15 -2532 1 -2587 7 -24 32 -60 58 -87 107 -111 279
-84 353 54 l22 42 5 800 c6 787 6 801 28 879 29 103 79 219 139 320 62 103
232 276 323 329 149 86 315 105 461 54 80 -29 166 -35 216 -16 103 39 156 194
103 299 -53 104 -252 161 -452 130z"/>
<path d="M3791 3058 c-28 -14 -51 -36 -63 -58 -17 -33 -18 -102 -18 -1517 l0
-1483 415 0 415 0 -2 1489 c-3 1487 -3 1490 -24 1517 -11 15 -33 37 -48 48
-26 20 -42 21 -329 24 -297 3 -303 2 -346 -20z"/>
<path d="M1960 1971 c-19 -10 -44 -34 -55 -52 -20 -33 -20 -54 -23 -976 l-2
-943 415 0 415 0 0 943 c0 922 0 943 -20 975 -11 18 -34 41 -52 52 -31 19 -51
20 -338 20 -279 0 -308 -2 -340 -19z"/>
<path d="M180 713 c-14 -3 -40 -16 -58 -29 -61 -47 -62 -52 -62 -384 l0 -300
416 0 415 0 -3 308 c-4 432 21 406 -398 408 -157 1 -296 0 -310 -3z"/>
</g>
</svg>
